<mxfile host="app.diagrams.net" modified="2023-01-15T22:29:19.963Z" agent="5.0 (Macintosh; Intel Mac OS X 10_15_7) AppleWebKit/537.36 (KHTML, like Gecko) Chrome/108.0.0.0 Safari/537.36" version="20.7.4" etag="xjJBLmghD2bcKAkTHG6D" type="github">
  <diagram id="ljxXXhLhvAgGl7J6G4s4" name="Page-1">
    <mxGraphModel dx="794" dy="418" grid="1" gridSize="10" guides="1" tooltips="1" connect="1" arrows="1" fold="1" page="1" pageScale="1" pageWidth="827" pageHeight="1169" math="0" shadow="0">
      <root>
        <mxCell id="0" />
        <mxCell id="1" parent="0" />
        <mxCell id="QU0X1oR4tF8cKHQGs2CE-1" value="I/O port addressing&lt;br&gt;I/O instructions&lt;br&gt;I/O protection mechanism" style="text;html=1;strokeColor=none;fillColor=none;align=left;verticalAlign=middle;whiteSpace=wrap;rounded=0;" vertex="1" parent="1">
          <mxGeometry x="260" y="170" width="170" height="60" as="geometry" />
        </mxCell>
      </root>
    </mxGraphModel>
  </diagram>
</mxfile>
